# xmcd
#
# Track frame offsets:
#	150
#	6118
#	11567
#	22137
#	35893
#	44226
#	54160
#	65583
#	76822
#	89152
#	97485
#
# Disc length: 1430 seconds
#
# Revision: 1
# Processed by: cddbd v1.5.2PL0 Copyright (c) Steve Scherf et al.
# Submitted via: audiograbber 1.81.03
#
DISCID=9a05940b
DTITLE=vgc - Junina-RJr-2013
DYEAR=2013
DGENRE=Junina
TTITLE0=000-capelinha de melão-Berçário-LOLI.mp3 - 000-capelinha de melão-Berçá
TTITLE0=rio-LOLI.mp3
TTITLE1=001-25 Balão-Contruindo dia-a-dia-Mini e Mat I - ALINE.mp3 - 001-25 Bal
TTITLE1=ão-Contruindo dia-a-dia-Mini e Mat I - ALINE.mp3
TTITLE2=002-09 ARRAIA DO PATATI PATATA-NA CIDADE DOS SONHOS-Mini e Mat I - ELEN
TTITLE2=ICE.mp3 - 002-09 ARRAIA DO PATATI PATATA-NA CIDADE DOS SONHOS-Mini e Ma
TTITLE2=t I - ELENICE.mp3
TTITLE3=003-11-junina - rala o coco, mexe a canjica-CD Amarelinha-Mat II - RAQU
TTITLE3=EL.mp3 - 003-11-junina - rala o coco, mexe a canjica-CD Amarelinha-Mat 
TTITLE3=II - RAQUEL.mp3
TTITLE4=004-03 - Faixa  3-Geral1.mp3 - 004-03 - Faixa  3-Geral1.mp3
TTITLE5=005-06 - Faixa  6-Geral2.mp3 - 005-06 - Faixa  6-Geral2.mp3
TTITLE6=006-07 - Faixa  7-Jardim I - SONIA.mp3 - 006-07 - Faixa  7-Jardim I - S
TTITLE6=ONIA.mp3
TTITLE7=007-06 - Entra na roda-Jardim - FLAVIA.mp3 - 007-06 - Entra na roda-Jar
TTITLE7=dim - FLAVIA.mp3
TTITLE8=008-04 - Faixa  4-Jardim II - PATRICIA.mp3 - 008-04 - Faixa  4-Jardim I
TTITLE8=I - PATRICIA.mp3
TTITLE9=009-03 - Faixa  3-Geral1.mp3 - 009-03 - Faixa  3-Geral1.mp3
TTITLE10=010-06 - Faixa  6-Geral2.mp3 - 010-06 - Faixa  6-Geral2.mp3
EXTD=
EXTT0=
EXTT1=
EXTT2=
EXTT3=
EXTT4=
EXTT5=
EXTT6=
EXTT7=
EXTT8=
EXTT9=
EXTT10=
PLAYORDER=
